<svg aria-hidden="true" style="position: absolute; width: 0; height: 0; overflow: hidden;" version="1.1" xmlns="http://www.w3.org/2000/svg" xmlns:xlink="http://www.w3.org/1999/xlink">
<defs>
<symbol id="icon-close" viewBox="0 0 32 32">
<path d="M26.667 7.303l-1.97-1.97-7.808 7.808-7.808-7.808-1.97 1.97 7.808 7.808-7.808 7.808 1.97 1.97 7.808-7.808 7.808 7.808 1.97-1.97-7.808-7.808 7.808-7.808z"></path>
</symbol>
<symbol id="icon-mail" viewBox="0 0 32 32">
<path d="M6.4 6c-1.672 0-3.067 1.343-3.067 3v14c0 1.657 1.395 3 3.067 3h19.2c1.672 0 3.067-1.343 3.067-3v-14c0-1.657-1.395-3-3.067-3zM6.4 7.333h19.2c0.965 0 1.733 0.757 1.733 1.667v14c0 0.909-0.768 1.667-1.733 1.667h-19.2c-0.965 0-1.733-0.757-1.733-1.667v-14c0-0.909 0.768-1.667 1.733-1.667z"></path>
<path d="M5.24 8.675c-0.181 0.026-0.335 0.12-0.439 0.256l-0.001 0.002c-0.084 0.11-0.134 0.25-0.134 0.401 0 0.218 0.104 0.411 0.266 0.533l0.002 0.001 10.667 8c0.11 0.083 0.249 0.133 0.4 0.133s0.29-0.050 0.402-0.135l-0.002 0.001 10.667-8c0.163-0.123 0.267-0.316 0.267-0.533 0-0.151-0.050-0.29-0.135-0.402l0.001 0.002c-0.123-0.163-0.316-0.267-0.533-0.267-0.151 0-0.29 0.050-0.402 0.135l0.002-0.001-10.267 7.7-10.267-7.7c-0.11-0.082-0.248-0.132-0.398-0.132-0.034 0-0.066 0.002-0.099 0.007l0.004-0z"></path>
</symbol>
<symbol id="icon-map-pin" viewBox="0 0 32 32">
<path d="M16 3.333c-6.223 0-11.333 4.671-11.333 10.484 0 4.129 2.811 7.785 5.536 10.433 1.62 1.57 3.402 2.992 5.312 4.234l0.136 0.083c0.099 0.062 0.22 0.099 0.349 0.099s0.25-0.037 0.352-0.101l-0.003 0.002s2.723-1.671 5.448-4.317c2.725-2.648 5.536-6.304 5.536-10.433 0-5.813-5.111-10.484-11.333-10.484zM16 4.667c5.56 0 10 4.12 10 9.151 0 3.508-2.523 6.943-5.131 9.477-2.433 2.364-4.555 3.664-4.869 3.861-0.315-0.197-2.436-1.497-4.869-3.861-2.608-2.533-5.131-5.969-5.131-9.477 0-5.031 4.44-9.151 10-9.151z"></path>
<path d="M16 10c-2.575 0.006-4.661 2.092-4.667 4.666v0.001c0 2.569 2.097 4.667 4.667 4.667s4.667-2.097 4.667-4.667-2.097-4.667-4.667-4.667zM16 11.333c1.849 0 3.333 1.484 3.333 3.333s-1.484 3.333-3.333 3.333c-0.003 0-0.007 0-0.011 0-1.835 0-3.323-1.488-3.323-3.323 0-0.004 0-0.008 0-0.011v0.001c0-1.849 1.484-3.333 3.333-3.333z"></path>
</symbol>
<symbol id="icon-phone" viewBox="0 0 32 32">
<path d="M7.476 4.667c-1.553 0.003-2.811 1.263-2.811 2.816 0 0.088 0.004 0.175 0.012 0.26l-0.001-0.011c0.003 0.008 0.004 0.012 0.006 0.015l-0.002-0.005c0.393 3.606 1.606 6.864 3.447 9.674l-0.051-0.083c1.726 2.688 3.945 4.907 6.547 6.582l0.085 0.051c2.714 1.784 5.957 2.995 9.447 3.386l0.099 0.009c0 0 0.005 0.001 0.009 0.002l0.004 0.001c0.076 0.007 0.163 0.011 0.252 0.011 1.554 0 2.813-1.26 2.813-2.813 0-0.003 0-0.007-0-0.011v0.001-3.197c0-0.018 0.001-0.040 0.001-0.062 0-1.416-1.044-2.589-2.404-2.791l-0.015-0.002c-0.001 0-0.002 0-0.003 0s-0.002 0-0.003 0h0c-1.072-0.145-2.039-0.395-2.957-0.746l0.090 0.030h-0.004c-0.293-0.113-0.632-0.178-0.986-0.178-0.771 0-1.469 0.31-1.977 0.812l0-0c-0.005 0.002-0.006 0.003-0.006 0.003l0.004-0.002-0.956 0.956c-2.257-1.389-4.104-3.236-5.453-5.422l-0.041-0.071 0.955-0.955c0.001-0.001 0.002-0.002 0.003-0.003l0-0c0.502-0.508 0.811-1.206 0.811-1.977 0-0.355-0.066-0.695-0.186-1.008l0.007 0.019h0.003c-0.321-0.828-0.571-1.795-0.708-2.799l-0.008-0.068c0-0.001 0-0.002 0-0.003s0-0.002 0-0.003v0c-0.204-1.375-1.376-2.419-2.792-2.419-0.007 0-0.015 0-0.022 0h0.001zM7.476 6h3.219c0.001 0 0.002 0 0.003 0s0.002 0 0.003 0h-0c0.747-0.008 1.375 0.531 1.48 1.271 0.143 1.079 0.407 2.135 0.787 3.153 0 0 0 0.001 0 0.001s0 0.001 0 0.001v-0c0.203 0.543 0.073 1.149-0.333 1.56l-1.36 1.36c-0.12 0.121-0.194 0.287-0.194 0.471 0 0.122 0.033 0.236 0.090 0.334l-0.002-0.003c1.615 2.805 3.881 5.071 6.599 6.639l0.086 0.046c0.095 0.055 0.208 0.087 0.329 0.087 0.185 0 0.352-0.075 0.472-0.196l1.36-1.36c0.411-0.407 1.017-0.533 1.56-0.331 1.019 0.381 2.079 0.644 3.156 0.787 0.749 0.107 1.289 0.744 1.271 1.5-0 0.002-0 0.005-0 0.008s0 0.006 0 0.008v-0 3.219c0 0 0 0.001 0 0.001s0 0.001 0 0.001v-0c0 0.001 0 0.003 0 0.004 0 0.816-0.661 1.477-1.477 1.477-0.046 0-0.091-0.002-0.135-0.006l0.006 0c-3.369-0.375-6.413-1.511-9.038-3.232l0.078 0.048c-0.001-0.001-0.003-0.003-0.005-0.004l-0.001-0.001c-2.525-1.621-4.609-3.705-6.181-6.149l-0.048-0.080c-0.003-0.006-0.004-0.007-0.004-0.009l0.002 0.004c-1.68-2.559-2.818-5.618-3.178-8.911l-0.008-0.092c-0.004-0.039-0.006-0.084-0.006-0.129 0-0.815 0.659-1.475 1.473-1.477h0z"></path>
</symbol>
<symbol id="icon-facebook" viewBox="0 0 32 32">
<path d="M21.33 5.312h2.922v-5.088c-1.232-0.143-2.66-0.224-4.107-0.224-0.052 0-0.104 0-0.157 0l0.008-0c-4.211 0-7.098 2.65-7.098 7.52v4.48h-4.648v5.688h4.648v14.312h5.699v-14.31h4.459l0.709-5.688h-5.168v-3.922c0-1.643 0.443-2.768 2.733-2.768z"></path>
</symbol>
<symbol id="icon-instagram" viewBox="0 0 32 32">
<path d="M31.968 9.408c-0.074-1.701-0.349-2.869-0.742-3.882-0.424-1.111-1.054-2.059-1.85-2.837l-0.001-0.001c-0.78-0.792-1.724-1.419-2.778-1.827l-0.054-0.018c-1.019-0.394-2.181-0.667-3.882-0.742-1.712-0.082-2.256-0.101-6.602-0.101-4.344 0-4.888 0.019-6.595 0.094-1.699 0.074-2.869 0.349-3.88 0.742-1.112 0.424-2.060 1.054-2.839 1.85l-0.001 0.001c-0.791 0.78-1.418 1.724-1.825 2.778l-0.018 0.054c-0.395 1.019-0.669 2.181-0.744 3.882-0.082 1.712-0.101 2.256-0.101 6.602 0 4.344 0.019 4.888 0.094 6.595 0.075 1.701 0.35 2.869 0.744 3.882 0.426 1.11 1.055 2.057 1.849 2.837l0.001 0.001c0.8 0.813 1.77 1.443 2.832 1.843 1.019 0.395 2.182 0.67 3.882 0.744 1.707 0.075 2.251 0.094 6.595 0.094 4.346 0 4.89-0.019 6.595-0.094 1.701-0.074 2.869-0.349 3.882-0.742 2.157-0.85 3.833-2.526 4.664-4.628l0.019-0.055c0.394-1.019 0.669-2.182 0.744-3.882 0.075-1.707 0.093-2.251 0.093-6.595s-0.006-4.888-0.080-6.595zM29.088 22.474c-0.070 1.563-0.333 2.406-0.55 2.97-0.552 1.399-1.64 2.486-3.004 3.024l-0.036 0.012c-0.56 0.219-1.411 0.482-2.968 0.55-1.688 0.075-2.194 0.094-6.464 0.094-4.269 0-4.782-0.019-6.464-0.094-1.563-0.069-2.406-0.331-2.97-0.55-0.721-0.269-1.334-0.676-1.836-1.192l-0.001-0.001c-0.517-0.503-0.924-1.117-1.184-1.803l-0.011-0.034c-0.218-0.563-0.48-1.413-0.549-2.97-0.075-1.688-0.094-2.195-0.094-6.464 0-4.27 0.019-4.784 0.094-6.464 0.069-1.563 0.331-2.406 0.549-2.97 0.269-0.722 0.678-1.337 1.198-1.837l0.002-0.002c0.504-0.517 1.119-0.923 1.806-1.182l0.034-0.011c0.56-0.219 1.411-0.48 2.968-0.55 1.688-0.074 2.195-0.093 6.464-0.093 4.275 0 4.782 0.019 6.464 0.093 1.563 0.069 2.406 0.331 2.97 0.55 0.693 0.256 1.325 0.662 1.837 1.194 0.531 0.52 0.938 1.144 1.195 1.84 0.218 0.56 0.48 1.411 0.549 2.968 0.075 1.688 0.094 2.194 0.094 6.464 0 4.269-0.019 4.768-0.094 6.458z"></path>
<path d="M16.059 7.782c-4.539 0.002-8.218 3.682-8.219 8.221v0c0 0 0 0.001 0 0.002 0 4.541 3.681 8.222 8.222 8.222s8.222-3.681 8.222-8.222c0-4.541-3.681-8.222-8.222-8.222-0.001 0-0.001 0-0.002 0h0zM16.059 21.334c-2.945-0-5.332-2.388-5.332-5.333s2.388-5.333 5.333-5.333c0 0 0.001 0 0.001 0h-0c2.946 0 5.334 2.388 5.334 5.334s-2.388 5.334-5.334 5.334v0zM26.525 7.458c0 1.060-0.86 1.92-1.92 1.92s-1.92-0.86-1.92-1.92v0c0-1.060 0.86-1.92 1.92-1.92s1.92 0.86 1.92 1.92v0z"></path>
</symbol>
<symbol id="icon-linkedin" viewBox="0 0 32 32">
<path d="M31.992 32h0.008v-11.738c0-5.741-1.235-10.163-7.947-10.163-3.227 0-5.392 1.77-6.277 3.45h-0.093v-2.914h-6.365v21.363h6.627v-10.578c0-2.786 0.528-5.48 3.978-5.48 3.398 0 3.45 3.179 3.45 5.658v10.402h6.619zM0.528 10.635h6.635v21.365h-6.635v-21.365zM3.843 0c-2.123 0-3.843 1.721-3.843 3.843v0c0 2.12 1.722 3.878 3.843 3.878 2.12 0 3.842-1.757 3.842-3.878s-1.72-3.841-3.841-3.843h-0z"></path>
</symbol>
<symbol id="icon-twitter" viewBox="0 0 32 32">
<path d="M32 6.078c-1.1 0.493-2.376 0.857-3.713 1.028l-0.068 0.007c1.36-0.817 2.382-2.078 2.873-3.579l0.013-0.046c-1.197 0.722-2.591 1.273-4.076 1.573l-0.084 0.014c-1.2-1.279-2.9-2.076-4.787-2.076-3.622 0-6.558 2.936-6.558 6.558 0 0.001 0 0.003 0 0.004v-0c0 0.52 0.043 1.021 0.152 1.496-5.454-0.266-10.28-2.88-13.522-6.861-0.564 0.949-0.899 2.092-0.902 3.313v0.001c0 2.272 1.171 4.286 2.914 5.451-1.091-0.030-2.107-0.325-2.994-0.823l0.033 0.017v0.072c0.003 3.165 2.236 5.807 5.213 6.44l0.043 0.008c-0.499 0.136-1.071 0.215-1.662 0.215-0.020 0-0.041-0-0.061-0l0.003 0c-0.419 0-0.843-0.024-1.242-0.112 0.85 2.598 3.261 4.509 6.13 4.57-2.215 1.746-5.045 2.8-8.122 2.8-0.004 0-0.008 0-0.013 0h0.001c-0.018 0-0.040 0-0.062 0-0.531 0-1.055-0.034-1.569-0.099l0.061 0.006c2.826 1.846 6.287 2.944 10.004 2.944 0.021 0 0.042-0 0.063-0h-0.003c12.072 0 18.672-10 18.672-18.669 0-0.288-0.010-0.57-0.024-0.848 1.299-0.936 2.39-2.064 3.258-3.355l0.030-0.047z"></path>
</symbol>
</defs>
</svg>
