<svg aria-hidden="true" style="position:absolute;width:0;height:0;overflow:hidden" xmlns="http://www.w3.org/2000/svg"><defs><symbol id="icon-mail" viewBox="0 0 32 32"><path d="M6.4 6C4.728 6 3.333 7.343 3.333 9v14c0 1.657 1.395 3 3.067 3h19.2c1.672 0 3.067-1.343 3.067-3V9c0-1.657-1.395-3-3.067-3zm0 1.333h19.2c.965 0 1.733.757 1.733 1.667v14c0 .909-.768 1.667-1.733 1.667H6.4c-.965 0-1.733-.757-1.733-1.667V9c0-.909.768-1.667 1.733-1.667z"/><path d="M5.24 8.675a.668.668 0 0 0-.439.256l-.001.002a.665.665 0 0 0 .132.934l.002.001 10.667 8a.663.663 0 0 0 .802-.002l-.002.001 10.667-8a.666.666 0 0 0 .132-.935l.001.002a.666.666 0 0 0-.935-.132l.002-.001-10.267 7.7-10.267-7.7a.665.665 0 0 0-.497-.125h.004z"/></symbol><symbol id="icon-map-pin" viewBox="0 0 32 32"><path d="M16 3.333c-6.223 0-11.333 4.671-11.333 10.484 0 4.129 2.811 7.785 5.536 10.433a35.26 35.26 0 0 0 5.312 4.234l.136.083a.659.659 0 0 0 .701-.002l-.003.002s2.723-1.671 5.448-4.317c2.725-2.648 5.536-6.304 5.536-10.433 0-5.813-5.111-10.484-11.333-10.484zm0 1.334c5.56 0 10 4.12 10 9.151 0 3.508-2.523 6.943-5.131 9.477-2.433 2.364-4.555 3.664-4.869 3.861-.315-.197-2.436-1.497-4.869-3.861C8.523 20.762 6 17.326 6 13.818c0-5.031 4.44-9.151 10-9.151z"/><path d="M16 10a4.678 4.678 0 0 0-4.667 4.666v.001c0 2.569 2.097 4.667 4.667 4.667s4.667-2.097 4.667-4.667S18.57 10 16 10zm0 1.333c1.849 0 3.333 1.484 3.333 3.333S17.849 17.999 16 17.999h-.011a3.323 3.323 0 0 1-3.323-3.323v-.011.001a3.323 3.323 0 0 1 3.333-3.333z"/></symbol><symbol id="icon-phone" viewBox="0 0 32 32"><path d="M7.476 4.667a2.817 2.817 0 0 0-2.799 3.076l-.001-.011.006.015-.002-.005c.393 3.606 1.606 6.864 3.447 9.674l-.051-.083a21.761 21.761 0 0 0 6.547 6.582l.085.051c2.714 1.784 5.957 2.995 9.447 3.386l.099.009.009.002.004.001a2.813 2.813 0 0 0 3.065-2.802v-.011.001-3.197l.001-.062a2.823 2.823 0 0 0-2.404-2.791l-.015-.002h-.006a13.095 13.095 0 0 1-2.957-.746l.09.03h-.004a2.762 2.762 0 0 0-.986-.178c-.771 0-1.469.31-1.977.812l-.006.003.004-.002-.956.956a16.577 16.577 0 0 1-5.453-5.422l-.041-.071.955-.955.003-.003a2.802 2.802 0 0 0 .811-1.977 2.81 2.81 0 0 0-.186-1.008l.007.019h.003a12.57 12.57 0 0 1-.708-2.799l-.008-.068v-.006a2.826 2.826 0 0 0-2.792-2.419h-.022.001zm0 1.333h3.225a1.472 1.472 0 0 1 1.48 1.271 14.43 14.43 0 0 0 .787 3.153v.002a1.478 1.478 0 0 1-.333 1.56l-1.36 1.36a.666.666 0 0 0-.104.805l-.002-.003c1.615 2.805 3.881 5.071 6.599 6.639l.086.046a.662.662 0 0 0 .801-.109l1.36-1.36a1.477 1.477 0 0 1 1.56-.331c1.019.381 2.079.644 3.156.787a1.47 1.47 0 0 1 1.271 1.5V24.561a1.477 1.477 0 0 1-1.612 1.471h.006c-3.369-.375-6.413-1.511-9.038-3.232l.078.048a.022.022 0 0 0-.005-.004l-.001-.001a20.415 20.415 0 0 1-6.181-6.149l-.048-.08-.004-.009.002.004a20.297 20.297 0 0 1-3.178-8.911l-.008-.092A1.476 1.476 0 0 1 7.48 6z"/></symbol><symbol id="icon-facebook" viewBox="0 0 32 32"><path d="M21.33 5.312h2.922V.224A36.478 36.478 0 0 0 20.145 0h-.157.008c-4.211 0-7.098 2.65-7.098 7.52V12H8.25v5.688h4.648V32h5.699V17.69h4.459l.709-5.688h-5.168V8.08c0-1.643.443-2.768 2.733-2.768z"/></symbol><symbol id="icon-instagram" viewBox="0 0 32 32"><path d="M31.968 9.408c-.074-1.701-.349-2.869-.742-3.882a7.839 7.839 0 0 0-1.85-2.837l-.001-.001A7.906 7.906 0 0 0 26.597.861l-.054-.018C25.524.449 24.362.176 22.661.101 20.949.019 20.405 0 16.059 0c-4.344 0-4.888.019-6.595.094-1.699.074-2.869.349-3.88.742a7.847 7.847 0 0 0-2.839 1.85l-.001.001A7.9 7.9 0 0 0 .919 5.465l-.018.054C.506 6.538.232 7.7.157 9.401c-.082 1.712-.101 2.256-.101 6.602 0 4.344.019 4.888.094 6.595.075 1.701.35 2.869.744 3.882a7.915 7.915 0 0 0 1.849 2.837l.001.001c.8.813 1.77 1.443 2.832 1.843 1.019.395 2.182.67 3.882.744 1.707.075 2.251.094 6.595.094 4.346 0 4.89-.019 6.595-.094 1.701-.074 2.869-.349 3.882-.742a8.237 8.237 0 0 0 4.664-4.628l.019-.055c.394-1.019.669-2.182.744-3.882.075-1.707.093-2.251.093-6.595s-.006-4.888-.08-6.595zm-2.88 13.066c-.07 1.563-.333 2.406-.55 2.97a5.341 5.341 0 0 1-3.004 3.024l-.036.012c-.56.219-1.411.482-2.968.55-1.688.075-2.194.094-6.464.094-4.269 0-4.782-.019-6.464-.094-1.563-.069-2.406-.331-2.97-.55a4.953 4.953 0 0 1-1.836-1.192l-.001-.001a4.978 4.978 0 0 1-1.184-1.803L3.6 25.45c-.218-.563-.48-1.413-.549-2.97-.075-1.688-.094-2.195-.094-6.464 0-4.27.019-4.784.094-6.464.069-1.563.331-2.406.549-2.97a4.897 4.897 0 0 1 1.198-1.837l.002-.002a4.972 4.972 0 0 1 1.806-1.182l.034-.011c.56-.219 1.411-.48 2.968-.55 1.688-.074 2.195-.093 6.464-.093 4.275 0 4.782.019 6.464.093 1.563.069 2.406.331 2.97.55a4.91 4.91 0 0 1 1.837 1.194c.531.52.938 1.144 1.195 1.84.218.56.48 1.411.549 2.968.075 1.688.094 2.194.094 6.464 0 4.269-.019 4.768-.094 6.458z"/><path d="M16.059 7.782a8.223 8.223 0 0 0-8.219 8.221v.002a8.222 8.222 0 1 0 16.444 0 8.222 8.222 0 0 0-8.222-8.222h-.002zm0 13.552a5.333 5.333 0 0 1 .001-10.666h.001a5.334 5.334 0 1 1 0 10.668zM26.525 7.458a1.92 1.92 0 0 1-3.84 0 1.92 1.92 0 0 1 3.84 0z"/></symbol><symbol id="icon-linkedin" viewBox="0 0 32 32"><path d="M31.992 32H32V20.262c0-5.741-1.235-10.163-7.947-10.163-3.227 0-5.392 1.77-6.277 3.45h-.093v-2.914h-6.365v21.363h6.627V21.42c0-2.786.528-5.48 3.978-5.48 3.398 0 3.45 3.179 3.45 5.658V32h6.619zM.528 10.635h6.635V32H.528V10.635zM3.843 0A3.843 3.843 0 0 0 0 3.843c0 2.12 1.722 3.878 3.843 3.878 2.12 0 3.842-1.757 3.842-3.878S5.965.002 3.844 0z"/></symbol><symbol id="icon-twitter" viewBox="0 0 32 32"><path d="M32 6.078c-1.1.493-2.376.857-3.713 1.028l-.068.007a6.556 6.556 0 0 0 2.873-3.579l.013-.046a12.88 12.88 0 0 1-4.076 1.573l-.084.014A6.558 6.558 0 0 0 15.6 9.557v.004c0 .52.043 1.021.152 1.496-5.454-.266-10.28-2.88-13.522-6.861a6.524 6.524 0 0 0-.902 3.313v.001a6.57 6.57 0 0 0 2.914 5.451 6.453 6.453 0 0 1-2.994-.823l.033.017v.072a6.592 6.592 0 0 0 5.213 6.44l.043.008a6.403 6.403 0 0 1-1.662.215h-.061.003c-.419 0-.843-.024-1.242-.112.85 2.598 3.261 4.509 6.13 4.57a13.093 13.093 0 0 1-8.122 2.8H1.57h.001-.062c-.531 0-1.055-.034-1.569-.099l.061.006c2.826 1.846 6.287 2.944 10.004 2.944h.063-.003c12.072 0 18.672-10 18.672-18.669 0-.288-.01-.57-.024-.848a13.203 13.203 0 0 0 3.258-3.355l.03-.047z"/></symbol></defs></svg>